<svg width="451" height="345" viewBox="0 0 451 345" fill="none" xmlns="http://www.w3.org/2000/svg">
<path d="M269.539 124.698C270.172 114.619 265.342 105.372 255.163 97.2183C245.341 89.3477 230.984 82.8375 212.505 77.8591C194.026 72.8808 172.322 69.6821 148.006 68.3559C131.023 67.428 113.258 67.4466 94.9638 68.4038M269.539 124.698C269.458 125.989 269.287 127.285 269.028 128.584M269.539 124.698V128.765M78.202 94.2662L79.7646 69.4056C84.8675 69.0009 89.9356 68.6669 94.9638 68.4038M78.202 94.2662C148.557 89.414 202.773 105.38 201.131 131.49C201.019 133.286 200.644 135.087 200.021 136.886C196.694 146.496 186.283 156.053 170.854 164.624M78.202 94.2662V121.357M70.3872 218.599C94.1325 215.768 117.28 211.556 139.353 206.032L139.353 206.026C161.686 200.439 182.051 193.738 200.022 186.077C201.998 185.235 203.946 184.381 205.864 183.515C224.79 174.969 239.906 165.72 250.798 156.026C251.036 155.814 251.273 155.601 251.507 155.389C261.392 146.422 267.265 137.423 269.028 128.584M70.3872 218.599L71.9498 193.738C91.6084 191.194 110.205 187.266 126.843 182.359M70.3872 218.599V228.835M170.854 164.624C158.907 160.551 143.93 157.707 126.843 156.341M170.854 164.624C158.883 171.274 143.891 177.331 126.843 182.359M449.898 106.785C451.073 88.0845 442.095 70.9358 423.227 55.815C405.01 41.2204 378.388 29.1324 344.09 19.8985C309.792 10.6586 269.55 4.73296 224.46 2.26665C184.292 0.0739894 141.794 0.730411 97.8625 4.21766L94.9638 50.3355M449.898 106.785V168.801C448.722 187.501 437.479 206.658 416.444 225.741C396.136 244.16 367.651 261.719 331.77 277.921C295.89 294.129 254.375 308.178 208.408 319.679C167.457 329.931 124.509 337.753 80.4666 343V280.984M449.898 106.785C449.298 116.324 446.079 125.981 440.277 135.687C434.705 145.009 426.749 154.376 416.444 163.724C396.136 182.144 367.651 199.703 331.77 215.905C314.115 223.88 295.096 231.332 274.854 238.215C253.957 245.321 231.757 251.821 208.408 257.663C167.457 267.915 124.509 275.737 80.4666 280.984M94.9638 50.3355C169.068 45.2222 233.512 52.5619 274.823 68.7238C306.278 81.0298 324.321 98.4507 323.006 119.384C322.364 129.59 317.168 139.871 308.139 149.9M94.9638 50.3355V68.4038M80.4666 280.984L80.5718 279.311M308.139 149.9C298.972 160.082 285.853 170.004 269.539 179.327M308.139 149.9C298.981 141.704 285.872 134.594 269.539 128.765M80.5718 279.311L83.3653 234.866C158.738 225.105 225.685 204.385 269.539 179.327M80.5718 279.311C77.1902 279.774 73.7948 280.209 70.3872 280.615V228.835M269.539 179.327V128.765M269.028 128.584C269.199 128.644 269.369 128.705 269.539 128.765M1.01666 151.214C1.80823 138.62 30.6267 125.607 65.3634 122.158C69.3323 121.764 73.2111 121.509 76.9508 121.392C77.3694 121.379 77.7865 121.367 78.202 121.357M1.01666 151.214C0.994367 151.569 0.994524 151.919 1.01666 152.266M1.01666 151.214V152.266M126.843 138.721C126.141 149.882 103.449 161.365 74.1321 166.237C70.3602 166.866 66.465 167.383 62.4961 167.777C28.7374 171.129 1.78089 164.223 1.01666 152.266M126.843 138.721C127.534 127.721 106.651 120.671 78.202 121.357M126.843 138.721V156.341M1.01666 152.266V213.23C0.22472 225.83 27.7594 233.242 62.4961 229.793C65.1648 229.528 67.8002 229.207 70.3872 228.835M126.843 156.341V182.359" stroke="black" stroke-width="2"/>
</svg>
