<svg width="457" height="350" viewBox="0 0 457 350" fill="none" xmlns="http://www.w3.org/2000/svg">
<g filter="url(#filter0_di_368_49)">
<path d="M208.864 182.515C206.946 183.381 204.998 184.235 203.022 185.077C185.051 192.738 164.686 199.439 142.353 205.026L142.353 205.032C120.28 210.556 97.1325 214.768 73.3872 217.599L74.9498 192.738C94.6084 190.194 113.205 186.266 129.843 181.359C146.891 176.331 161.883 170.274 173.854 163.624C189.283 155.053 199.694 145.496 203.021 135.886C203.644 134.087 204.019 132.286 204.131 130.49C205.773 104.38 151.557 88.414 81.202 93.2662L82.7646 68.4056C87.8675 68.0009 92.9356 67.6669 97.9638 67.4038C116.258 66.4466 134.023 66.428 151.006 67.3559C175.322 68.6821 197.026 71.8808 215.505 76.8591C233.984 81.8375 248.341 88.3477 258.163 96.2183C268.342 104.372 273.172 113.619 272.539 123.698C272.458 124.989 272.287 126.285 272.028 127.584C270.265 136.423 264.392 145.422 254.507 154.389C254.273 154.601 254.036 154.814 253.798 155.026C242.906 164.72 227.79 173.969 208.864 182.515Z" fill="#96262E"/>
<path d="M211.408 256.663C234.757 250.821 256.957 244.321 277.854 237.215C298.096 230.332 317.115 222.88 334.77 214.905C370.651 198.703 399.136 181.144 419.444 162.724C429.749 153.376 437.705 144.009 443.277 134.687C449.079 124.981 452.298 115.324 452.898 105.785C454.073 87.0845 445.095 69.9358 426.227 54.815C408.01 40.2204 381.388 28.1324 347.09 18.8985C312.793 9.65855 272.55 3.73296 227.46 1.26665C187.292 -0.926011 144.794 -0.269589 100.862 3.21766L97.9638 49.3355C172.068 44.2222 236.512 51.5618 277.823 67.7238C309.278 80.0298 327.321 97.4507 326.006 118.384C325.364 128.59 320.168 138.871 311.139 148.9C301.972 159.082 288.853 169.004 272.539 178.327C228.685 203.385 161.738 224.105 86.3653 233.866L83.5718 278.311L83.4666 279.984C127.509 274.737 170.457 266.915 211.408 256.663Z" fill="#96262E"/>
<path d="M211.408 318.679C257.375 307.178 298.89 293.129 334.77 276.921C370.651 260.719 399.136 243.16 419.444 224.741C440.479 205.658 451.723 186.501 452.898 167.801V105.785C452.298 115.324 449.079 124.981 443.277 134.687C437.705 144.009 429.749 153.376 419.444 162.724C399.136 181.144 370.651 198.703 334.77 214.905C317.115 222.88 298.096 230.332 277.854 237.215C256.957 244.321 234.757 250.821 211.408 256.663C170.457 266.915 127.509 274.737 83.4666 279.984V342C127.509 336.753 170.457 328.931 211.408 318.679Z" fill="#96262E"/>
<path d="M142.353 205.032C120.28 210.556 97.1325 214.768 73.3872 217.599V227.835V279.615C76.7948 279.209 80.1902 278.774 83.5718 278.311L86.3653 233.866C161.738 224.105 228.685 203.385 272.539 178.327V127.765C272.369 127.705 272.199 127.644 272.028 127.584C270.265 136.423 264.392 145.422 254.507 154.389C254.273 154.601 254.036 154.814 253.798 155.026C242.906 164.72 227.79 173.969 208.864 182.515C206.946 183.381 204.998 184.235 203.022 185.077C185.051 192.738 164.686 199.439 142.353 205.026L142.353 205.032Z" fill="#96262E"/>
<path d="M258.163 96.2183C268.342 104.372 273.172 113.619 272.539 123.698V127.765C288.872 133.594 301.981 140.704 311.139 148.9C320.168 138.871 325.364 128.59 326.006 118.384C327.321 97.4507 309.278 80.0298 277.823 67.7238C236.512 51.5618 172.068 44.2222 97.9638 49.3355V67.4038C116.258 66.4466 134.023 66.428 151.006 67.3559C175.322 68.6821 197.026 71.8808 215.505 76.8591C233.984 81.8375 248.341 88.3477 258.163 96.2183Z" fill="#96262E"/>
<path d="M4.01666 150.214C4.80823 137.62 33.6267 124.607 68.3634 121.158C72.3323 120.764 76.2111 120.509 79.9508 120.392C80.3694 120.379 80.7865 120.367 81.202 120.357C109.651 119.671 130.534 126.721 129.843 137.721C129.141 148.882 106.449 160.365 77.1321 165.237C73.3602 165.866 69.465 166.383 65.4961 166.777C31.7374 170.129 4.78089 163.223 4.01666 151.266C3.99452 150.919 3.99437 150.569 4.01666 150.214Z" fill="#96262E"/>
<path d="M204.131 130.49C205.773 104.38 151.557 88.414 81.202 93.2662V120.357C109.651 119.671 130.534 126.721 129.843 137.721V155.341C146.93 156.707 161.907 159.551 173.854 163.624C189.283 155.053 199.694 145.496 203.021 135.886C203.644 134.087 204.019 132.286 204.131 130.49Z" fill="#96262E"/>
<path d="M73.3872 217.599L74.9498 192.738C94.6084 190.194 113.205 186.266 129.843 181.359V155.341V137.721C129.141 148.882 106.449 160.365 77.1321 165.237C73.3602 165.866 69.465 166.383 65.4961 166.777C31.7374 170.129 4.78089 163.223 4.01666 151.266V212.23C3.22472 224.83 30.7594 232.242 65.4961 228.793C68.1648 228.528 70.8002 228.207 73.3872 227.835V217.599Z" fill="#96262E"/>
<path d="M142.317 204.88L142.211 204.907L142.21 204.913C120.231 210.408 97.1869 214.604 73.5482 217.428L75.0917 192.871C94.6367 190.336 113.131 186.433 129.693 181.56C129.757 181.541 129.821 181.522 129.885 181.503C146.941 176.472 161.944 170.412 173.927 163.755L174.222 163.591L174.222 163.591C189.496 155.058 199.838 145.539 203.163 135.935C203.79 134.124 204.167 132.31 204.281 130.499C204.695 123.911 201.583 117.976 195.607 112.862C189.634 107.751 180.791 103.451 169.709 100.124C147.579 93.4789 116.482 90.6986 81.3624 93.1048L82.9061 68.5449C87.9639 68.1449 92.9874 67.8144 97.9716 67.5536C116.261 66.5966 134.021 66.5781 150.998 67.5057C175.306 68.8315 196.999 72.029 215.466 77.004C233.934 81.9795 248.27 88.4827 258.069 96.3353C268.223 104.469 273.019 113.672 272.389 123.688C272.308 124.973 272.139 126.262 271.881 127.555C271.881 127.556 271.88 127.557 271.88 127.559C270.125 136.353 264.277 145.324 254.406 154.278C254.172 154.49 253.936 154.702 253.698 154.914C242.821 164.595 227.72 173.836 208.802 182.378C206.885 183.243 204.938 184.097 202.963 184.939C185 192.596 164.643 199.295 142.317 204.88ZM73.5372 227.662V217.732C97.2421 214.901 120.351 210.693 142.389 205.177L142.496 205.15L142.496 205.145C164.793 199.561 185.13 192.867 203.08 185.215C205.058 184.372 207.007 183.518 208.926 182.652L208.864 182.515L208.926 182.652C227.861 174.102 242.991 164.846 253.897 155.138C254.136 154.926 254.373 154.713 254.608 154.5C264.443 145.579 270.328 136.61 272.141 127.783L272.148 127.786C272.228 127.814 272.309 127.843 272.389 127.871V178.24C228.555 203.266 161.662 223.964 86.3461 233.717L86.2234 233.733L86.2156 233.857L83.4298 278.179C80.1448 278.628 76.8468 279.05 73.5372 279.446V227.835V227.662ZM272.613 178.457C288.936 169.13 302.069 159.198 311.25 149C311.255 148.995 311.26 148.989 311.265 148.984C311.294 148.952 311.322 148.92 311.351 148.888C320.332 138.88 325.513 128.607 326.155 118.393C326.816 107.875 322.612 98.2475 314.311 89.714C306.013 81.1831 293.617 73.7415 277.878 67.5841C236.57 51.4234 172.169 44.083 98.1242 49.1741L101.004 3.3569C144.883 -0.120869 187.331 -0.773679 227.452 1.41642C272.534 3.88231 312.766 9.80672 347.051 19.0433L347.078 18.9452L347.051 19.0433C381.339 28.2744 407.938 40.3553 426.133 54.9321C444.975 70.0322 453.92 87.1377 452.748 105.776L452.748 105.776V105.78C452.149 115.29 448.939 124.922 443.148 134.61C437.585 143.916 429.641 153.272 419.343 162.613C399.051 181.019 370.581 198.571 334.709 214.768C317.059 222.741 298.044 230.192 277.806 237.073C256.913 244.178 234.717 250.676 211.371 256.517C170.483 266.754 127.601 274.567 83.6276 279.814L83.7215 278.321L83.733 278.138L86.5073 233.999C161.714 224.247 228.533 203.585 272.389 178.585C272.462 178.544 272.534 178.502 272.607 178.46C272.609 178.459 272.611 178.458 272.613 178.457ZM325.856 118.374C325.22 128.498 320.081 138.71 311.127 148.688C301.974 140.533 288.921 133.461 272.689 127.66V123.702C273.324 113.563 268.46 104.275 258.257 96.1012C248.412 88.2128 234.033 81.6955 215.544 76.7143C197.052 71.7326 175.338 68.5328 151.015 67.2062C134.074 66.2806 116.357 66.2964 98.1138 67.2458V49.4755C172.148 44.3818 236.512 51.7229 277.769 67.8635C293.485 74.0121 305.838 81.434 314.096 89.9232C322.351 98.4099 326.511 107.959 325.856 118.374ZM443.406 134.764C448.569 126.127 451.693 117.524 452.748 109.004V167.796C451.574 186.44 440.362 205.561 419.343 224.629C399.051 243.035 370.581 260.587 334.709 276.784C298.837 292.988 257.331 307.034 211.371 318.533C170.483 328.77 127.601 336.583 83.6276 341.83L86.515 295.892L86.2156 295.873L83.6166 337.222V280.117C127.618 274.869 170.528 267.052 211.444 256.808C234.797 250.965 257.001 244.465 277.902 237.357C298.149 230.473 317.172 223.019 334.832 215.042C370.721 198.836 399.221 181.269 419.545 162.836C429.858 153.479 437.824 144.101 443.406 134.764ZM73.2372 217.599V227.705C70.6937 228.069 68.1036 228.383 65.4812 228.644C48.125 230.367 32.5764 229.376 21.4721 226.385C15.9191 224.889 11.488 222.896 8.49764 220.501C5.50945 218.108 3.97239 215.326 4.16637 212.24L4.16666 212.24V212.23V153.012C4.83557 155.361 6.54483 157.48 9.11027 159.327C12.2933 161.618 16.8093 163.504 22.3466 164.907C33.4225 167.715 48.6196 168.603 65.5109 166.926C69.4831 166.532 73.3816 166.015 77.1567 165.385C91.8263 162.947 104.844 158.855 114.287 153.971C119.008 151.529 122.841 148.886 125.54 146.149C127.666 143.994 129.095 141.772 129.693 139.538V155.179V155.341V181.247C113.09 186.137 94.5395 190.052 74.9305 192.589L74.8078 192.605L74.8001 192.729L73.2375 217.589L73.2372 217.589V217.599ZM9.28555 159.083C6.14633 156.823 4.35548 154.188 4.16666 151.261V150.219C4.36269 147.128 6.27999 143.988 9.62073 140.957C12.961 137.926 17.7079 135.019 23.5223 132.394C35.1503 127.143 51.0226 123.031 68.3782 121.308C72.3439 120.914 76.2193 120.659 79.9555 120.542L79.9556 120.542C80.3738 120.529 80.7905 120.517 81.2056 120.507C81.209 120.507 81.2125 120.507 81.2159 120.507C95.4253 120.165 107.735 121.755 116.4 124.798C120.735 126.32 124.147 128.203 126.431 130.38C128.713 132.554 129.862 135.016 129.693 137.712C129.521 140.452 127.997 143.23 125.327 145.939C122.657 148.646 118.854 151.271 114.149 153.704C104.742 158.57 91.7552 162.655 77.1075 165.089C73.3389 165.717 69.447 166.234 65.4812 166.628C48.6138 168.302 33.4534 167.413 22.4203 164.617C16.9031 163.218 12.4267 161.345 9.28555 159.083ZM116.5 124.515C107.818 121.467 95.5224 119.875 81.352 120.204V93.4062C116.461 90.9979 147.531 93.7779 169.622 100.411C180.683 103.732 189.483 108.016 195.412 113.09C201.339 118.162 204.388 124.013 203.982 130.48C203.87 132.262 203.498 134.05 202.879 135.837C199.575 145.38 189.229 154.902 173.84 163.46C161.92 159.405 147.001 156.571 129.993 155.203V137.726C130.167 134.923 128.966 132.381 126.638 130.162C124.312 127.945 120.856 126.045 116.5 124.515Z" stroke="white" stroke-width="0.3"/>
</g>
<defs>
<filter id="filter0_di_368_49" x="0" y="-1" width="457" height="351" filterUnits="userSpaceOnUse" color-interpolation-filters="sRGB">
<feFlood flood-opacity="0" result="BackgroundImageFix"/>
<feColorMatrix in="SourceAlpha" type="matrix" values="0 0 0 0 0 0 0 0 0 0 0 0 0 0 0 0 0 0 127 0" result="hardAlpha"/>
<feOffset dy="4"/>
<feGaussianBlur stdDeviation="2"/>
<feComposite in2="hardAlpha" operator="out"/>
<feColorMatrix type="matrix" values="0 0 0 0 0 0 0 0 0 0 0 0 0 0 0 0 0 0 0.25 0"/>
<feBlend mode="normal" in2="BackgroundImageFix" result="effect1_dropShadow_368_49"/>
<feBlend mode="normal" in="SourceGraphic" in2="effect1_dropShadow_368_49" result="shape"/>
<feColorMatrix in="SourceAlpha" type="matrix" values="0 0 0 0 0 0 0 0 0 0 0 0 0 0 0 0 0 0 127 0" result="hardAlpha"/>
<feOffset dx="-3" dy="-1"/>
<feGaussianBlur stdDeviation="6"/>
<feComposite in2="hardAlpha" operator="arithmetic" k2="-1" k3="1"/>
<feColorMatrix type="matrix" values="0 0 0 0 0 0 0 0 0 0 0 0 0 0 0 0 0 0 0.25 0"/>
<feBlend mode="normal" in2="shape" result="effect2_innerShadow_368_49"/>
</filter>
</defs>
</svg>
